<svg width="584" height="147" viewBox="0 0 584 147" fill="none" xmlns="http://www.w3.org/2000/svg">
<rect width="978" height="561" transform="translate(-129 -73)" fill="white"/>
<rect x="102" y="79" width="324" height="39" fill="#AB2424"/>
<rect x="102" y="41" width="358" height="39" fill="#4A7B39"/>
<rect x="102" y="41" width="358" height="39" fill="#4A7B39"/>
<rect x="102" y="2" width="396" height="39" fill="#AB2424"/>
<path d="M117.402 10.6445C118.431 10.6445 119.453 10.7161 120.469 10.8594C121.497 10.9896 122.48 11.1523 123.418 11.3477C124.368 11.5299 125.267 11.7122 126.113 11.8945C126.96 12.0768 127.721 12.207 128.398 12.2852C128.242 12.7539 128.164 13.5807 128.164 14.7656C128.164 17.0703 128.509 19.069 129.199 20.7617C129.121 20.9961 128.88 21.1393 128.477 21.1914L127.637 19.3945C127.22 18.4961 126.719 17.6107 126.133 16.7383C125.547 15.8529 124.844 15.0651 124.023 14.375C123.203 13.6719 122.246 13.1055 121.152 12.6758C120.072 12.2461 118.822 12.0312 117.402 12.0312C116.178 12.0312 115.091 12.2331 114.141 12.6367C113.19 13.0404 112.357 13.5872 111.641 14.2773C110.924 14.9544 110.319 15.7487 109.824 16.6602C109.329 17.5586 108.926 18.5156 108.613 19.5312C108.314 20.5469 108.092 21.5885 107.949 22.6562C107.819 23.724 107.754 24.7591 107.754 25.7617C107.754 27.4284 107.969 29.0234 108.398 30.5469C108.841 32.0703 109.525 33.418 110.449 34.5898C111.374 35.7487 112.546 36.6732 113.965 37.3633C115.397 38.0534 117.103 38.3984 119.082 38.3984C122.871 38.3984 125.736 37.2135 127.676 34.8438C127.884 34.8438 128.053 34.9023 128.184 35.0195C128.327 35.1367 128.398 35.2799 128.398 35.4492C127.773 36.3737 127.012 37.1745 126.113 37.8516C125.228 38.5286 124.284 39.0885 123.281 39.5312C122.279 39.9609 121.263 40.2799 120.234 40.4883C119.219 40.6966 118.275 40.8008 117.402 40.8008C116.452 40.8008 115.423 40.6966 114.316 40.4883C113.223 40.293 112.122 39.9609 111.016 39.4922C109.922 39.0234 108.867 38.4115 107.852 37.6562C106.849 36.888 105.957 35.9505 105.176 34.8438C104.395 33.724 103.77 32.4154 103.301 30.918C102.832 29.4206 102.598 27.7018 102.598 25.7617C102.598 23.8086 102.832 22.0833 103.301 20.5859C103.77 19.0755 104.395 17.7604 105.176 16.6406C105.97 15.5208 106.875 14.5833 107.891 13.8281C108.919 13.0599 109.98 12.4414 111.074 11.9727C112.168 11.4909 113.262 11.1523 114.355 10.957C115.449 10.7487 116.465 10.6445 117.402 10.6445ZM147.812 10.625C148.815 10.625 149.87 10.7292 150.977 10.9375C152.096 11.1458 153.197 11.4909 154.277 11.9727C155.371 12.4414 156.413 13.0664 157.402 13.8477C158.405 14.6159 159.284 15.5599 160.039 16.6797C160.794 17.7995 161.393 19.1081 161.836 20.6055C162.292 22.1029 162.52 23.8216 162.52 25.7617C162.52 27.7148 162.298 29.4466 161.855 30.957C161.413 32.4544 160.814 33.763 160.059 34.8828C159.303 35.9896 158.424 36.9271 157.422 37.6953C156.432 38.4505 155.384 39.0625 154.277 39.5312C153.184 39.987 152.064 40.3125 150.918 40.5078C149.772 40.7161 148.678 40.8203 147.637 40.8203C146.647 40.8203 145.592 40.7161 144.473 40.5078C143.366 40.3125 142.266 39.987 141.172 39.5312C140.078 39.0625 139.03 38.4505 138.027 37.6953C137.038 36.9271 136.159 35.9896 135.391 34.8828C134.635 33.763 134.03 32.4544 133.574 30.957C133.132 29.4466 132.91 27.7148 132.91 25.7617C132.91 23.7565 133.145 21.9922 133.613 20.4688C134.082 18.9323 134.701 17.6042 135.469 16.4844C136.25 15.3646 137.148 14.4336 138.164 13.6914C139.193 12.9362 140.254 12.3307 141.348 11.875C142.454 11.4193 143.561 11.1003 144.668 10.918C145.788 10.7227 146.836 10.625 147.812 10.625ZM147.715 12.0312C146.491 12.0312 145.404 12.2331 144.453 12.6367C143.503 13.0404 142.669 13.5872 141.953 14.2773C141.237 14.9544 140.632 15.7487 140.137 16.6602C139.642 17.5586 139.238 18.5156 138.926 19.5312C138.626 20.5469 138.405 21.5885 138.262 22.6562C138.132 23.724 138.066 24.7591 138.066 25.7617C138.066 26.7253 138.132 27.7279 138.262 28.7695C138.392 29.8112 138.607 30.8398 138.906 31.8555C139.206 32.8581 139.596 33.8151 140.078 34.7266C140.573 35.638 141.178 36.4388 141.895 37.1289C142.611 37.819 143.444 38.3724 144.395 38.7891C145.358 39.1927 146.465 39.3945 147.715 39.3945C148.939 39.3945 150.026 39.1992 150.977 38.8086C151.927 38.4049 152.76 37.8646 153.477 37.1875C154.193 36.4974 154.792 35.7031 155.273 34.8047C155.768 33.8932 156.165 32.9362 156.465 31.9336C156.777 30.918 156.999 29.8828 157.129 28.8281C157.272 27.7734 157.344 26.7513 157.344 25.7617C157.344 24.7591 157.272 23.724 157.129 22.6562C156.999 21.5885 156.777 20.5469 156.465 19.5312C156.165 18.5156 155.768 17.5586 155.273 16.6602C154.779 15.7487 154.173 14.9544 153.457 14.2773C152.741 13.5872 151.908 13.0404 150.957 12.6367C150.007 12.2331 148.926 12.0312 147.715 12.0312ZM165.195 11.2891C168.138 11.3932 170.456 11.4453 172.148 11.4453C174.609 11.4453 176.81 11.3932 178.75 11.2891C178.802 11.4974 178.828 11.6406 178.828 11.7188C178.828 11.862 178.802 12.0247 178.75 12.207C177.031 12.2591 175.866 12.3893 175.254 12.5977C174.655 12.793 174.355 13.138 174.355 13.6328C174.355 13.6458 174.447 13.9714 174.629 14.6094L182.754 33.4766H182.949L190.566 14.3555C190.645 14.1602 190.684 13.9062 190.684 13.5938C190.684 13.1641 190.449 12.8581 189.98 12.6758C189.512 12.4935 188.704 12.3372 187.559 12.207C187.507 11.9206 187.48 11.7448 187.48 11.6797C187.48 11.5755 187.507 11.4453 187.559 11.2891C189.238 11.3672 190.755 11.4062 192.109 11.4062C193.594 11.4062 195.078 11.3672 196.562 11.2891C196.615 11.4453 196.641 11.5755 196.641 11.6797C196.641 11.888 196.615 12.0638 196.562 12.207C195.586 12.2982 194.772 12.5 194.121 12.8125C193.483 13.112 192.988 13.6263 192.637 14.3555L182.07 40.5664H181.152L169.805 14.6094C169.206 13.2422 167.669 12.4414 165.195 12.207C165.143 11.9727 165.117 11.8099 165.117 11.7188C165.117 11.5885 165.143 11.4453 165.195 11.2891ZM197.969 11.2891C200.885 11.3932 203.151 11.4453 204.766 11.4453C206.38 11.4453 208.646 11.3932 211.562 11.2891C211.615 11.4974 211.641 11.6406 211.641 11.7188C211.641 11.862 211.615 12.0247 211.562 12.207C210.964 12.2591 210.475 12.3177 210.098 12.3828C209.733 12.4349 209.277 12.526 208.73 12.6562C208.197 12.7865 207.786 12.9753 207.5 13.2227C207.214 13.457 207.064 13.7435 207.051 14.082C206.882 18.5091 206.797 22.6302 206.797 26.4453C206.797 29.2318 206.868 32.8581 207.012 37.3242C207.025 37.6628 207.174 37.9557 207.461 38.2031C207.747 38.4375 208.158 38.6198 208.691 38.75C209.238 38.8802 209.694 38.9779 210.059 39.043C210.436 39.0951 210.924 39.1471 211.523 39.1992C211.576 39.3555 211.602 39.5312 211.602 39.7266C211.602 39.8307 211.576 39.9609 211.523 40.1172C209.31 40.0391 207.044 40 204.727 40C202.383 40 200.117 40.0391 197.93 40.1172C197.878 39.9609 197.852 39.8307 197.852 39.7266C197.852 39.5052 197.878 39.3294 197.93 39.1992C198.32 39.1602 198.633 39.1276 198.867 39.1016C199.102 39.0755 199.421 39.0299 199.824 38.9648C200.241 38.8997 200.573 38.8281 200.82 38.75C201.081 38.6589 201.348 38.5482 201.621 38.418C201.895 38.2878 202.096 38.1315 202.227 37.9492C202.37 37.7669 202.441 37.5586 202.441 37.3242C202.598 33.2487 202.676 29.1406 202.676 25C202.676 20.7812 202.611 17.1419 202.48 14.082C202.467 13.7435 202.318 13.457 202.031 13.2227C201.745 12.9753 201.328 12.7865 200.781 12.6562C200.247 12.526 199.792 12.4349 199.414 12.3828C199.049 12.3177 198.568 12.2591 197.969 12.207C197.917 11.9727 197.891 11.8099 197.891 11.7188C197.891 11.5885 197.917 11.4453 197.969 11.2891ZM214.57 11.2891C217.487 11.3932 219.818 11.4453 221.562 11.4453C224.818 11.3411 226.816 11.2891 227.559 11.2891C228.77 11.2891 229.909 11.3411 230.977 11.4453C232.044 11.5495 233.145 11.7448 234.277 12.0312C235.423 12.3047 236.458 12.6693 237.383 13.125C238.307 13.5677 239.193 14.1602 240.039 14.9023C240.885 15.6445 241.595 16.5039 242.168 17.4805C242.741 18.457 243.197 19.6354 243.535 21.0156C243.874 22.3828 244.043 23.8997 244.043 25.5664C243.939 27.168 243.659 28.6393 243.203 29.9805C242.76 31.3216 242.188 32.4805 241.484 33.457C240.794 34.4336 239.974 35.306 239.023 36.0742C238.073 36.8424 237.077 37.4674 236.035 37.9492C235.007 38.431 233.887 38.8281 232.676 39.1406C231.478 39.4531 230.306 39.6745 229.16 39.8047C228.027 39.9349 226.855 40 225.645 40C220.762 40 217.057 40.0391 214.531 40.1172C214.479 39.9609 214.453 39.8307 214.453 39.7266C214.453 39.6354 214.479 39.4596 214.531 39.1992C214.922 39.1602 215.234 39.1276 215.469 39.1016C215.703 39.0755 216.022 39.0299 216.426 38.9648C216.842 38.8997 217.174 38.8281 217.422 38.75C217.682 38.6589 217.949 38.5482 218.223 38.418C218.496 38.2878 218.698 38.1315 218.828 37.9492C218.971 37.7669 219.043 37.5586 219.043 37.3242C219.199 33.2487 219.277 29.1406 219.277 25C219.277 20.7812 219.212 17.1419 219.082 14.082C219.069 13.7435 218.919 13.457 218.633 13.2227C218.346 12.9753 217.93 12.7865 217.383 12.6562C216.849 12.526 216.393 12.4349 216.016 12.3828C215.651 12.3177 215.169 12.2591 214.57 12.207C214.518 11.9727 214.492 11.8099 214.492 11.7188C214.492 11.6406 214.518 11.4974 214.57 11.2891ZM223.652 14.082C223.483 18.5091 223.398 22.6302 223.398 26.4453C223.398 28.5547 223.47 32.5911 223.613 38.5547C224.173 38.5807 224.974 38.5938 226.016 38.5938C228.125 38.5938 230 38.2747 231.641 37.6367C233.281 36.9857 234.629 36.0807 235.684 34.9219C236.738 33.763 237.533 32.3958 238.066 30.8203C238.613 29.2318 238.887 27.4805 238.887 25.5664C238.887 24.5768 238.809 23.6068 238.652 22.6562C238.496 21.7057 238.249 20.7357 237.91 19.7461C237.572 18.7565 237.103 17.8451 236.504 17.0117C235.905 16.1784 235.189 15.4362 234.355 14.7852C233.535 14.1211 232.52 13.6068 231.309 13.2422C230.111 12.8646 228.783 12.6758 227.324 12.6758C225.983 12.6758 224.759 12.7604 223.652 12.9297V14.082ZM249.844 31.9531V29.5117H261.719V31.9531H249.844ZM280.645 39.1992C280.723 39.3555 280.762 39.5182 280.762 39.6875C280.762 39.8568 280.723 40 280.645 40.1172C278.926 40.0391 277.135 40 275.273 40C273.451 40 271.68 40.0391 269.961 40.1172C269.909 39.9089 269.883 39.7656 269.883 39.6875C269.883 39.6224 269.909 39.4596 269.961 39.1992C270.43 39.1341 270.794 39.082 271.055 39.043C271.315 38.9909 271.667 38.8997 272.109 38.7695C272.552 38.6263 272.884 38.4375 273.105 38.2031C273.34 37.9557 273.464 37.6628 273.477 37.3242C273.529 36.0352 273.555 34.4727 273.555 32.6367V28.8086C273.555 26.9596 273.529 25.3971 273.477 24.1211C273.464 23.7826 273.34 23.4961 273.105 23.2617C272.884 23.0143 272.552 22.8255 272.109 22.6953C271.667 22.5521 271.315 22.4609 271.055 22.4219C270.794 22.3698 270.43 22.3112 269.961 22.2461C269.909 21.9596 269.883 21.7969 269.883 21.7578C269.883 21.6797 269.909 21.5365 269.961 21.3281C271.68 21.4062 273.451 21.4453 275.273 21.4453C277.135 21.4453 278.926 21.4062 280.645 21.3281C280.723 21.4453 280.762 21.5885 280.762 21.7578C280.762 21.9141 280.723 22.0768 280.645 22.2461C280.371 22.2852 280.169 22.3177 280.039 22.3438C279.909 22.3698 279.694 22.4154 279.395 22.4805C279.095 22.5456 278.861 22.6237 278.691 22.7148C278.522 22.793 278.333 22.8971 278.125 23.0273C277.93 23.1576 277.78 23.3138 277.676 23.4961C277.572 23.6784 277.52 23.8867 277.52 24.1211C277.415 26.3216 277.363 28.5221 277.363 30.7227C277.363 32.9232 277.415 35.1237 277.52 37.3242C277.52 37.5586 277.572 37.7669 277.676 37.9492C277.78 38.1315 277.93 38.2878 278.125 38.418C278.333 38.5482 278.522 38.6589 278.691 38.75C278.861 38.8281 279.095 38.8997 279.395 38.9648C279.694 39.0299 279.909 39.0755 280.039 39.1016C280.169 39.1276 280.371 39.1602 280.645 39.1992ZM285.82 49.1602L285.352 48.3984C290.625 45.8073 294.74 42.5977 297.695 38.7695C296.38 38.7695 295.169 38.6784 294.062 38.4961C292.969 38.3138 291.94 38.0078 290.977 37.5781C290.013 37.1484 289.199 36.6081 288.535 35.957C287.871 35.293 287.344 34.4727 286.953 33.4961C286.576 32.5065 286.387 31.3802 286.387 30.1172C286.387 28.6589 286.647 27.3307 287.168 26.1328C287.702 24.9219 288.398 23.9388 289.258 23.1836C290.13 22.4284 291.094 21.849 292.148 21.4453C293.216 21.0417 294.31 20.8398 295.43 20.8398C295.977 20.8398 296.523 20.8789 297.07 20.957C297.617 21.0352 298.203 21.1719 298.828 21.3672C299.453 21.5625 300.039 21.8164 300.586 22.1289C301.146 22.4284 301.68 22.832 302.188 23.3398C302.708 23.8346 303.151 24.401 303.516 25.0391C303.893 25.6641 304.193 26.4258 304.414 27.3242C304.635 28.2227 304.746 29.2057 304.746 30.2734C304.746 35.4036 302.188 39.8633 297.07 43.6523C294.154 45.8138 290.775 47.5326 286.934 48.8086C286.191 49.043 285.82 49.1602 285.82 49.1602ZM290.781 30.1172C290.794 31.3672 290.924 32.4219 291.172 33.2812C291.419 34.1406 291.836 34.8828 292.422 35.5078C293.008 36.1198 293.796 36.582 294.785 36.8945C295.775 37.194 296.999 37.3503 298.457 37.3633C299.056 36.7643 299.557 35.7878 299.961 34.4336C300.378 33.0794 300.586 31.4388 300.586 29.5117C300.586 27.181 300.13 25.3711 299.219 24.082C298.32 22.7799 297.07 22.1289 295.469 22.1289C295.065 22.1289 294.668 22.1875 294.277 22.3047C293.9 22.4219 293.49 22.6628 293.047 23.0273C292.604 23.3789 292.22 23.8346 291.895 24.3945C291.582 24.9544 291.315 25.7292 291.094 26.7188C290.885 27.7083 290.781 28.8411 290.781 30.1172Z" fill="white"/>
<path d="M53.528 16.608C61.1227 16.608 67.48 17.3333 72.6 18.784C77.8053 20.2347 81.688 22.624 84.248 25.952C86.8933 29.28 88.216 33.7173 88.216 39.264C88.216 42.848 87.5333 46.048 86.168 48.864C84.888 51.5947 82.9253 53.8987 80.28 55.776C77.72 57.568 74.5627 58.8053 70.808 59.488V60.128C74.648 60.7253 78.104 61.8347 81.176 63.456C84.3333 65.0773 86.808 67.3813 88.6 70.368C90.392 73.3547 91.288 77.2373 91.288 82.016C91.288 87.5627 90.008 92.2987 87.448 96.224C84.888 100.064 81.2187 103.008 76.44 105.056C71.7467 107.019 66.1147 108 59.544 108H27.416V16.608H53.528ZM55.832 55.52C63.6827 55.52 69.0587 54.2827 71.96 51.808C74.8613 49.248 76.312 45.4933 76.312 40.544C76.312 35.5093 74.52 31.9253 70.936 29.792C67.4373 27.5733 61.8053 26.464 54.04 26.464H38.936V55.52H55.832ZM38.936 65.12V98.272H57.368C65.4747 98.272 71.1067 96.6933 74.264 93.536C77.4213 90.3787 79 86.24 79 81.12C79 77.8773 78.2747 75.0613 76.824 72.672C75.4587 70.2827 73.112 68.448 69.784 67.168C66.5413 65.8027 62.104 65.12 56.472 65.12H38.936Z" fill="black"/>
<path d="M103.6 113V84.44H126.2V113H120.16V89.48H109.64V113H103.6ZM145.085 90.76C147.538 90.76 149.525 91.72 151.045 93.64C152.565 95.5333 153.325 98.3333 153.325 102.04C153.325 104.52 152.965 106.613 152.245 108.32C151.525 110 150.538 111.267 149.285 112.12C148.031 112.973 146.578 113.4 144.925 113.4C143.885 113.4 142.978 113.267 142.205 113C141.458 112.733 140.818 112.387 140.285 111.96C139.751 111.533 139.285 111.08 138.885 110.6H138.565C138.671 111.107 138.751 111.64 138.805 112.2C138.858 112.733 138.885 113.267 138.885 113.8V122.6H132.925V91.16H137.765L138.605 94H138.885C139.285 93.4133 139.765 92.88 140.325 92.4C140.885 91.8933 141.551 91.4933 142.325 91.2C143.125 90.9067 144.045 90.76 145.085 90.76ZM143.165 95.52C142.125 95.52 141.298 95.7333 140.685 96.16C140.071 96.5867 139.618 97.24 139.325 98.12C139.058 98.9733 138.911 100.053 138.885 101.36V102C138.885 103.413 139.018 104.613 139.285 105.6C139.551 106.56 140.005 107.293 140.645 107.8C141.285 108.307 142.151 108.56 143.245 108.56C144.151 108.56 144.898 108.307 145.485 107.8C146.071 107.293 146.511 106.547 146.805 105.56C147.098 104.573 147.245 103.373 147.245 101.96C147.245 99.8267 146.911 98.2267 146.245 97.16C145.605 96.0667 144.578 95.52 143.165 95.52ZM163.997 99.8C163.997 100.253 163.971 100.813 163.917 101.48C163.891 102.147 163.851 102.827 163.797 103.52C163.771 104.213 163.731 104.827 163.677 105.36C163.624 105.893 163.584 106.267 163.557 106.48L173.637 91.16H180.797V113H175.037V104.28C175.037 103.56 175.064 102.773 175.117 101.92C175.171 101.04 175.224 100.227 175.277 99.48C175.357 98.7067 175.411 98.12 175.437 97.72L165.397 113H158.237V91.16H163.997V99.8ZM206.666 91.16V108.64H209.866V120.84H204.506V113H189.826V120.84H184.466V108.64H186.306C187.266 107.173 188.08 105.507 188.746 103.64C189.413 101.747 189.946 99.7333 190.346 97.6C190.746 95.4667 191.04 93.32 191.226 91.16H206.666ZM196.226 95.64C196.013 97.24 195.746 98.8 195.426 100.32C195.106 101.813 194.706 103.253 194.226 104.64C193.773 106.027 193.213 107.36 192.546 108.64H200.706V95.64H196.226ZM219.549 91.16V99.56H227.869V91.16H233.829V113H227.869V104H219.549V113H213.589V91.16H219.549ZM249.073 90.76C251.1 90.76 252.833 91.1467 254.273 91.92C255.74 92.6933 256.873 93.8133 257.673 95.28C258.473 96.7467 258.873 98.5467 258.873 100.68V103.56H244.793C244.846 105.24 245.34 106.56 246.273 107.52C247.233 108.48 248.553 108.96 250.233 108.96C251.646 108.96 252.926 108.827 254.073 108.56C255.22 108.267 256.406 107.827 257.633 107.24V111.84C256.566 112.373 255.433 112.76 254.233 113C253.06 113.267 251.633 113.4 249.953 113.4C247.766 113.4 245.833 113 244.153 112.2C242.473 111.373 241.153 110.133 240.193 108.48C239.233 106.827 238.753 104.747 238.753 102.24C238.753 99.68 239.18 97.56 240.033 95.88C240.913 94.1733 242.126 92.8933 243.673 92.04C245.22 91.1867 247.02 90.76 249.073 90.76ZM249.113 95C247.966 95 247.006 95.3733 246.233 96.12C245.486 96.8667 245.046 98.0267 244.913 99.6H253.273C253.273 98.72 253.113 97.9333 252.793 97.24C252.5 96.5467 252.046 96 251.433 95.6C250.82 95.2 250.046 95 249.113 95ZM272.586 113.4C270.426 113.4 268.586 113.013 267.066 112.24C265.546 111.44 264.386 110.213 263.586 108.56C262.786 106.907 262.386 104.787 262.386 102.2C262.386 99.5333 262.839 97.36 263.746 95.68C264.653 94 265.906 92.76 267.506 91.96C269.133 91.16 270.999 90.76 273.106 90.76C274.599 90.76 275.893 90.9067 276.986 91.2C278.106 91.4933 279.079 91.84 279.906 92.24L278.146 96.84C277.213 96.4667 276.333 96.16 275.506 95.92C274.706 95.68 273.906 95.56 273.106 95.56C272.066 95.56 271.199 95.8133 270.506 96.32C269.813 96.8 269.293 97.5333 268.946 98.52C268.626 99.48 268.466 100.693 268.466 102.16C268.466 103.6 268.639 104.8 268.986 105.76C269.359 106.693 269.893 107.4 270.586 107.88C271.279 108.333 272.119 108.56 273.106 108.56C274.359 108.56 275.466 108.4 276.426 108.08C277.386 107.733 278.319 107.267 279.226 106.68V111.76C278.319 112.347 277.359 112.76 276.346 113C275.359 113.267 274.106 113.4 272.586 113.4ZM302.333 95.64H295.173V113H289.213V95.64H282.053V91.16H302.333V95.64ZM318.522 90.76C320.976 90.76 322.962 91.72 324.482 93.64C326.002 95.5333 326.762 98.3333 326.762 102.04C326.762 104.52 326.402 106.613 325.682 108.32C324.962 110 323.976 111.267 322.722 112.12C321.469 112.973 320.016 113.4 318.362 113.4C317.322 113.4 316.416 113.267 315.642 113C314.896 112.733 314.256 112.387 313.722 111.96C313.189 111.533 312.722 111.08 312.322 110.6H312.002C312.109 111.107 312.189 111.64 312.242 112.2C312.296 112.733 312.322 113.267 312.322 113.8V122.6H306.362V91.16H311.202L312.042 94H312.322C312.722 93.4133 313.202 92.88 313.762 92.4C314.322 91.8933 314.989 91.4933 315.762 91.2C316.562 90.9067 317.482 90.76 318.522 90.76ZM316.602 95.52C315.562 95.52 314.736 95.7333 314.122 96.16C313.509 96.5867 313.056 97.24 312.762 98.12C312.496 98.9733 312.349 100.053 312.322 101.36V102C312.322 103.413 312.456 104.613 312.722 105.6C312.989 106.56 313.442 107.293 314.082 107.8C314.722 108.307 315.589 108.56 316.682 108.56C317.589 108.56 318.336 108.307 318.922 107.8C319.509 107.293 319.949 106.547 320.242 105.56C320.536 104.573 320.682 103.373 320.682 101.96C320.682 99.8267 320.349 98.2267 319.682 97.16C319.042 96.0667 318.016 95.52 316.602 95.52ZM351.515 102.04C351.515 103.853 351.261 105.467 350.755 106.88C350.275 108.293 349.568 109.493 348.635 110.48C347.728 111.44 346.621 112.173 345.315 112.68C344.008 113.16 342.528 113.4 340.875 113.4C339.355 113.4 337.941 113.16 336.635 112.68C335.355 112.173 334.248 111.44 333.315 110.48C332.381 109.493 331.648 108.293 331.115 106.88C330.608 105.467 330.355 103.853 330.355 102.04C330.355 99.6133 330.781 97.5733 331.635 95.92C332.488 94.24 333.715 92.96 335.315 92.08C336.915 91.2 338.808 90.76 340.995 90.76C343.048 90.76 344.861 91.2 346.435 92.08C348.008 92.96 349.248 94.24 350.155 95.92C351.061 97.5733 351.515 99.6133 351.515 102.04ZM336.435 102.04C336.435 103.48 336.581 104.693 336.875 105.68C337.195 106.64 337.688 107.373 338.355 107.88C339.021 108.36 339.888 108.6 340.955 108.6C342.021 108.6 342.875 108.36 343.515 107.88C344.181 107.373 344.661 106.64 344.955 105.68C345.275 104.693 345.435 103.48 345.435 102.04C345.435 100.6 345.275 99.4 344.955 98.44C344.661 97.48 344.181 96.76 343.515 96.28C342.848 95.8 341.981 95.56 340.915 95.56C339.341 95.56 338.195 96.1067 337.475 97.2C336.781 98.2667 336.435 99.88 336.435 102.04ZM375.8 96.88C375.8 98.0533 375.427 99.0533 374.68 99.88C373.96 100.707 372.88 101.24 371.44 101.48V101.64C372.96 101.827 374.174 102.347 375.08 103.2C376.014 104.053 376.48 105.147 376.48 106.48C376.48 107.413 376.294 108.28 375.92 109.08C375.574 109.88 375.014 110.573 374.24 111.16C373.467 111.747 372.467 112.2 371.24 112.52C370.04 112.84 368.574 113 366.84 113H356.44V91.16H366.84C368.547 91.16 370.067 91.3467 371.4 91.72C372.76 92.0667 373.827 92.6533 374.6 93.48C375.4 94.3067 375.8 95.44 375.8 96.88ZM370.32 106.16C370.32 105.307 369.987 104.693 369.32 104.32C368.654 103.92 367.654 103.72 366.32 103.72H362.4V108.88H366.44C367.56 108.88 368.48 108.68 369.2 108.28C369.947 107.853 370.32 107.147 370.32 106.16ZM369.76 97.36C369.76 96.6667 369.494 96.16 368.96 95.84C368.427 95.52 367.64 95.36 366.6 95.36H362.4V99.68H365.92C367.174 99.68 368.12 99.5067 368.76 99.16C369.427 98.7867 369.76 98.1867 369.76 97.36ZM391.757 99.6C393.997 99.6 395.85 99.84 397.317 100.32C398.783 100.773 399.863 101.48 400.557 102.44C401.277 103.4 401.637 104.6 401.637 106.04C401.637 107.453 401.303 108.68 400.637 109.72C399.997 110.76 398.97 111.573 397.557 112.16C396.143 112.72 394.29 113 391.997 113H381.597V91.16H387.557V99.6H391.757ZM395.677 106.12C395.677 105.267 395.33 104.653 394.637 104.28C393.97 103.907 392.97 103.72 391.637 103.72H387.557V108.88H391.717C392.89 108.88 393.837 108.667 394.557 108.24C395.303 107.813 395.677 107.107 395.677 106.12ZM415.167 90.76C417.194 90.76 418.927 91.1467 420.367 91.92C421.834 92.6933 422.967 93.8133 423.767 95.28C424.567 96.7467 424.967 98.5467 424.967 100.68V103.56H410.887C410.94 105.24 411.434 106.56 412.367 107.52C413.327 108.48 414.647 108.96 416.327 108.96C417.74 108.96 419.02 108.827 420.167 108.56C421.314 108.267 422.5 107.827 423.727 107.24V111.84C422.66 112.373 421.527 112.76 420.327 113C419.154 113.267 417.727 113.4 416.047 113.4C413.86 113.4 411.927 113 410.247 112.2C408.567 111.373 407.247 110.133 406.287 108.48C405.327 106.827 404.847 104.747 404.847 102.24C404.847 99.68 405.274 97.56 406.127 95.88C407.007 94.1733 408.22 92.8933 409.767 92.04C411.314 91.1867 413.114 90.76 415.167 90.76ZM415.207 95C414.06 95 413.1 95.3733 412.327 96.12C411.58 96.8667 411.14 98.0267 411.007 99.6H419.367C419.367 98.72 419.207 97.9333 418.887 97.24C418.594 96.5467 418.14 96 417.527 95.6C416.914 95.2 416.14 95 415.207 95Z" fill="white"/>
</svg>
