<svg width="471" height="121" viewBox="0 0 471 121" fill="none" xmlns="http://www.w3.org/2000/svg">
<rect width="978" height="561" transform="translate(-245 -72)" fill="white"/>
<rect x="3" y="80" width="433" height="39" fill="#AB2424"/>
<rect x="3" y="42" width="450" height="39" fill="#4A7B39"/>
<rect x="3" y="3" width="465" height="39" fill="#AB2424"/>
<path d="M20.4023 11.6445C21.431 11.6445 22.4531 11.7161 23.4688 11.8594C24.4974 11.9896 25.4805 12.1523 26.418 12.3477C27.3685 12.5299 28.2669 12.7122 29.1133 12.8945C29.9596 13.0768 30.7214 13.207 31.3984 13.2852C31.2422 13.7539 31.1641 14.5807 31.1641 15.7656C31.1641 18.0703 31.5091 20.069 32.1992 21.7617C32.1211 21.9961 31.8802 22.1393 31.4766 22.1914L30.6367 20.3945C30.2201 19.4961 29.7188 18.6107 29.1328 17.7383C28.5469 16.8529 27.8438 16.0651 27.0234 15.375C26.2031 14.6719 25.2461 14.1055 24.1523 13.6758C23.0716 13.2461 21.8216 13.0312 20.4023 13.0312C19.1784 13.0312 18.0911 13.2331 17.1406 13.6367C16.1901 14.0404 15.3568 14.5872 14.6406 15.2773C13.9245 15.9544 13.319 16.7487 12.8242 17.6602C12.3294 18.5586 11.9258 19.5156 11.6133 20.5312C11.3138 21.5469 11.0924 22.5885 10.9492 23.6562C10.819 24.724 10.7539 25.7591 10.7539 26.7617C10.7539 28.4284 10.9688 30.0234 11.3984 31.5469C11.8411 33.0703 12.5247 34.418 13.4492 35.5898C14.3737 36.7487 15.5456 37.6732 16.9648 38.3633C18.3971 39.0534 20.1029 39.3984 22.082 39.3984C25.8711 39.3984 28.7357 38.2135 30.6758 35.8438C30.8841 35.8438 31.0534 35.9023 31.1836 36.0195C31.3268 36.1367 31.3984 36.2799 31.3984 36.4492C30.7734 37.3737 30.0117 38.1745 29.1133 38.8516C28.2279 39.5286 27.2839 40.0885 26.2812 40.5312C25.2786 40.9609 24.263 41.2799 23.2344 41.4883C22.2188 41.6966 21.2747 41.8008 20.4023 41.8008C19.4518 41.8008 18.4232 41.6966 17.3164 41.4883C16.2227 41.293 15.1224 40.9609 14.0156 40.4922C12.9219 40.0234 11.8672 39.4115 10.8516 38.6562C9.84896 37.888 8.95703 36.9505 8.17578 35.8438C7.39453 34.724 6.76953 33.4154 6.30078 31.918C5.83203 30.4206 5.59766 28.7018 5.59766 26.7617C5.59766 24.8086 5.83203 23.0833 6.30078 21.5859C6.76953 20.0755 7.39453 18.7604 8.17578 17.6406C8.97005 16.5208 9.875 15.5833 10.8906 14.8281C11.9193 14.0599 12.9805 13.4414 14.0742 12.9727C15.168 12.4909 16.2617 12.1523 17.3555 11.957C18.4492 11.7487 19.4648 11.6445 20.4023 11.6445ZM50.8125 11.625C51.8151 11.625 52.8698 11.7292 53.9766 11.9375C55.0964 12.1458 56.1966 12.4909 57.2773 12.9727C58.3711 13.4414 59.4128 14.0664 60.4023 14.8477C61.4049 15.6159 62.2839 16.5599 63.0391 17.6797C63.7943 18.7995 64.3932 20.1081 64.8359 21.6055C65.2917 23.1029 65.5195 24.8216 65.5195 26.7617C65.5195 28.7148 65.2982 30.4466 64.8555 31.957C64.4128 33.4544 63.8138 34.763 63.0586 35.8828C62.3034 36.9896 61.4245 37.9271 60.4219 38.6953C59.4323 39.4505 58.3841 40.0625 57.2773 40.5312C56.1836 40.987 55.0638 41.3125 53.918 41.5078C52.7721 41.7161 51.6784 41.8203 50.6367 41.8203C49.6471 41.8203 48.5924 41.7161 47.4727 41.5078C46.3659 41.3125 45.2656 40.987 44.1719 40.5312C43.0781 40.0625 42.0299 39.4505 41.0273 38.6953C40.0378 37.9271 39.1589 36.9896 38.3906 35.8828C37.6354 34.763 37.0299 33.4544 36.5742 31.957C36.1315 30.4466 35.9102 28.7148 35.9102 26.7617C35.9102 24.7565 36.1445 22.9922 36.6133 21.4688C37.082 19.9323 37.7005 18.6042 38.4688 17.4844C39.25 16.3646 40.1484 15.4336 41.1641 14.6914C42.1927 13.9362 43.2539 13.3307 44.3477 12.875C45.4544 12.4193 46.5612 12.1003 47.668 11.918C48.7878 11.7227 49.8359 11.625 50.8125 11.625ZM50.7148 13.0312C49.4909 13.0312 48.4036 13.2331 47.4531 13.6367C46.5026 14.0404 45.6693 14.5872 44.9531 15.2773C44.237 15.9544 43.6315 16.7487 43.1367 17.6602C42.6419 18.5586 42.2383 19.5156 41.9258 20.5312C41.6263 21.5469 41.4049 22.5885 41.2617 23.6562C41.1315 24.724 41.0664 25.7591 41.0664 26.7617C41.0664 27.7253 41.1315 28.7279 41.2617 29.7695C41.3919 30.8112 41.6068 31.8398 41.9062 32.8555C42.2057 33.8581 42.5964 34.8151 43.0781 35.7266C43.5729 36.638 44.1784 37.4388 44.8945 38.1289C45.6107 38.819 46.444 39.3724 47.3945 39.7891C48.3581 40.1927 49.4648 40.3945 50.7148 40.3945C51.9388 40.3945 53.026 40.1992 53.9766 39.8086C54.9271 39.4049 55.7604 38.8646 56.4766 38.1875C57.1927 37.4974 57.7917 36.7031 58.2734 35.8047C58.7682 34.8932 59.1654 33.9362 59.4648 32.9336C59.7773 31.918 59.9987 30.8828 60.1289 29.8281C60.2721 28.7734 60.3438 27.7513 60.3438 26.7617C60.3438 25.7591 60.2721 24.724 60.1289 23.6562C59.9987 22.5885 59.7773 21.5469 59.4648 20.5312C59.1654 19.5156 58.7682 18.5586 58.2734 17.6602C57.7786 16.7487 57.1732 15.9544 56.457 15.2773C55.7409 14.5872 54.9076 14.0404 53.957 13.6367C53.0065 13.2331 51.9258 13.0312 50.7148 13.0312ZM68.1953 12.2891C71.138 12.3932 73.4557 12.4453 75.1484 12.4453C77.6094 12.4453 79.8099 12.3932 81.75 12.2891C81.8021 12.4974 81.8281 12.6406 81.8281 12.7188C81.8281 12.862 81.8021 13.0247 81.75 13.207C80.0312 13.2591 78.8659 13.3893 78.2539 13.5977C77.6549 13.793 77.3555 14.138 77.3555 14.6328C77.3555 14.6458 77.4466 14.9714 77.6289 15.6094L85.7539 34.4766H85.9492L93.5664 15.3555C93.6445 15.1602 93.6836 14.9062 93.6836 14.5938C93.6836 14.1641 93.4492 13.8581 92.9805 13.6758C92.5117 13.4935 91.7044 13.3372 90.5586 13.207C90.5065 12.9206 90.4805 12.7448 90.4805 12.6797C90.4805 12.5755 90.5065 12.4453 90.5586 12.2891C92.2383 12.3672 93.7552 12.4062 95.1094 12.4062C96.5938 12.4062 98.0781 12.3672 99.5625 12.2891C99.6146 12.4453 99.6406 12.5755 99.6406 12.6797C99.6406 12.888 99.6146 13.0638 99.5625 13.207C98.5859 13.2982 97.7721 13.5 97.1211 13.8125C96.4831 14.112 95.9883 14.6263 95.6367 15.3555L85.0703 41.5664H84.1523L72.8047 15.6094C72.2057 14.2422 70.6693 13.4414 68.1953 13.207C68.1432 12.9727 68.1172 12.8099 68.1172 12.7188C68.1172 12.5885 68.1432 12.4453 68.1953 12.2891ZM100.969 12.2891C103.885 12.3932 106.151 12.4453 107.766 12.4453C109.38 12.4453 111.646 12.3932 114.562 12.2891C114.615 12.4974 114.641 12.6406 114.641 12.7188C114.641 12.862 114.615 13.0247 114.562 13.207C113.964 13.2591 113.475 13.3177 113.098 13.3828C112.733 13.4349 112.277 13.526 111.73 13.6562C111.197 13.7865 110.786 13.9753 110.5 14.2227C110.214 14.457 110.064 14.7435 110.051 15.082C109.882 19.5091 109.797 23.6302 109.797 27.4453C109.797 30.2318 109.868 33.8581 110.012 38.3242C110.025 38.6628 110.174 38.9557 110.461 39.2031C110.747 39.4375 111.158 39.6198 111.691 39.75C112.238 39.8802 112.694 39.9779 113.059 40.043C113.436 40.0951 113.924 40.1471 114.523 40.1992C114.576 40.3555 114.602 40.5312 114.602 40.7266C114.602 40.8307 114.576 40.9609 114.523 41.1172C112.31 41.0391 110.044 41 107.727 41C105.383 41 103.117 41.0391 100.93 41.1172C100.878 40.9609 100.852 40.8307 100.852 40.7266C100.852 40.5052 100.878 40.3294 100.93 40.1992C101.32 40.1602 101.633 40.1276 101.867 40.1016C102.102 40.0755 102.421 40.0299 102.824 39.9648C103.241 39.8997 103.573 39.8281 103.82 39.75C104.081 39.6589 104.348 39.5482 104.621 39.418C104.895 39.2878 105.096 39.1315 105.227 38.9492C105.37 38.7669 105.441 38.5586 105.441 38.3242C105.598 34.2487 105.676 30.1406 105.676 26C105.676 21.7812 105.611 18.1419 105.48 15.082C105.467 14.7435 105.318 14.457 105.031 14.2227C104.745 13.9753 104.328 13.7865 103.781 13.6562C103.247 13.526 102.792 13.4349 102.414 13.3828C102.049 13.3177 101.568 13.2591 100.969 13.207C100.917 12.9727 100.891 12.8099 100.891 12.7188C100.891 12.5885 100.917 12.4453 100.969 12.2891ZM117.57 12.2891C120.487 12.3932 122.818 12.4453 124.562 12.4453C127.818 12.3411 129.816 12.2891 130.559 12.2891C131.77 12.2891 132.909 12.3411 133.977 12.4453C135.044 12.5495 136.145 12.7448 137.277 13.0312C138.423 13.3047 139.458 13.6693 140.383 14.125C141.307 14.5677 142.193 15.1602 143.039 15.9023C143.885 16.6445 144.595 17.5039 145.168 18.4805C145.741 19.457 146.197 20.6354 146.535 22.0156C146.874 23.3828 147.043 24.8997 147.043 26.5664C146.939 28.168 146.659 29.6393 146.203 30.9805C145.76 32.3216 145.188 33.4805 144.484 34.457C143.794 35.4336 142.974 36.306 142.023 37.0742C141.073 37.8424 140.077 38.4674 139.035 38.9492C138.007 39.431 136.887 39.8281 135.676 40.1406C134.478 40.4531 133.306 40.6745 132.16 40.8047C131.027 40.9349 129.855 41 128.645 41C123.762 41 120.057 41.0391 117.531 41.1172C117.479 40.9609 117.453 40.8307 117.453 40.7266C117.453 40.6354 117.479 40.4596 117.531 40.1992C117.922 40.1602 118.234 40.1276 118.469 40.1016C118.703 40.0755 119.022 40.0299 119.426 39.9648C119.842 39.8997 120.174 39.8281 120.422 39.75C120.682 39.6589 120.949 39.5482 121.223 39.418C121.496 39.2878 121.698 39.1315 121.828 38.9492C121.971 38.7669 122.043 38.5586 122.043 38.3242C122.199 34.2487 122.277 30.1406 122.277 26C122.277 21.7812 122.212 18.1419 122.082 15.082C122.069 14.7435 121.919 14.457 121.633 14.2227C121.346 13.9753 120.93 13.7865 120.383 13.6562C119.849 13.526 119.393 13.4349 119.016 13.3828C118.651 13.3177 118.169 13.2591 117.57 13.207C117.518 12.9727 117.492 12.8099 117.492 12.7188C117.492 12.6406 117.518 12.4974 117.57 12.2891ZM126.652 15.082C126.483 19.5091 126.398 23.6302 126.398 27.4453C126.398 29.5547 126.47 33.5911 126.613 39.5547C127.173 39.5807 127.974 39.5938 129.016 39.5938C131.125 39.5938 133 39.2747 134.641 38.6367C136.281 37.9857 137.629 37.0807 138.684 35.9219C139.738 34.763 140.533 33.3958 141.066 31.8203C141.613 30.2318 141.887 28.4805 141.887 26.5664C141.887 25.5768 141.809 24.6068 141.652 23.6562C141.496 22.7057 141.249 21.7357 140.91 20.7461C140.572 19.7565 140.103 18.8451 139.504 18.0117C138.905 17.1784 138.189 16.4362 137.355 15.7852C136.535 15.1211 135.52 14.6068 134.309 14.2422C133.111 13.8646 131.783 13.6758 130.324 13.6758C128.983 13.6758 127.759 13.7604 126.652 13.9297V15.082ZM152.844 32.9531V30.5117H164.719V32.9531H152.844ZM183.645 40.1992C183.723 40.3555 183.762 40.5182 183.762 40.6875C183.762 40.8568 183.723 41 183.645 41.1172C181.926 41.0391 180.135 41 178.273 41C176.451 41 174.68 41.0391 172.961 41.1172C172.909 40.9089 172.883 40.7656 172.883 40.6875C172.883 40.6224 172.909 40.4596 172.961 40.1992C173.43 40.1341 173.794 40.082 174.055 40.043C174.315 39.9909 174.667 39.8997 175.109 39.7695C175.552 39.6263 175.884 39.4375 176.105 39.2031C176.34 38.9557 176.464 38.6628 176.477 38.3242C176.529 37.0352 176.555 35.4727 176.555 33.6367V29.8086C176.555 27.9596 176.529 26.3971 176.477 25.1211C176.464 24.7826 176.34 24.4961 176.105 24.2617C175.884 24.0143 175.552 23.8255 175.109 23.6953C174.667 23.5521 174.315 23.4609 174.055 23.4219C173.794 23.3698 173.43 23.3112 172.961 23.2461C172.909 22.9596 172.883 22.7969 172.883 22.7578C172.883 22.6797 172.909 22.5365 172.961 22.3281C174.68 22.4062 176.451 22.4453 178.273 22.4453C180.135 22.4453 181.926 22.4062 183.645 22.3281C183.723 22.4453 183.762 22.5885 183.762 22.7578C183.762 22.9141 183.723 23.0768 183.645 23.2461C183.371 23.2852 183.169 23.3177 183.039 23.3438C182.909 23.3698 182.694 23.4154 182.395 23.4805C182.095 23.5456 181.861 23.6237 181.691 23.7148C181.522 23.793 181.333 23.8971 181.125 24.0273C180.93 24.1576 180.78 24.3138 180.676 24.4961C180.572 24.6784 180.52 24.8867 180.52 25.1211C180.415 27.3216 180.363 29.5221 180.363 31.7227C180.363 33.9232 180.415 36.1237 180.52 38.3242C180.52 38.5586 180.572 38.7669 180.676 38.9492C180.78 39.1315 180.93 39.2878 181.125 39.418C181.333 39.5482 181.522 39.6589 181.691 39.75C181.861 39.8281 182.095 39.8997 182.395 39.9648C182.694 40.0299 182.909 40.0755 183.039 40.1016C183.169 40.1276 183.371 40.1602 183.645 40.1992ZM188.82 50.1602L188.352 49.3984C193.625 46.8073 197.74 43.5977 200.695 39.7695C199.38 39.7695 198.169 39.6784 197.062 39.4961C195.969 39.3138 194.94 39.0078 193.977 38.5781C193.013 38.1484 192.199 37.6081 191.535 36.957C190.871 36.293 190.344 35.4727 189.953 34.4961C189.576 33.5065 189.387 32.3802 189.387 31.1172C189.387 29.6589 189.647 28.3307 190.168 27.1328C190.702 25.9219 191.398 24.9388 192.258 24.1836C193.13 23.4284 194.094 22.849 195.148 22.4453C196.216 22.0417 197.31 21.8398 198.43 21.8398C198.977 21.8398 199.523 21.8789 200.07 21.957C200.617 22.0352 201.203 22.1719 201.828 22.3672C202.453 22.5625 203.039 22.8164 203.586 23.1289C204.146 23.4284 204.68 23.832 205.188 24.3398C205.708 24.8346 206.151 25.401 206.516 26.0391C206.893 26.6641 207.193 27.4258 207.414 28.3242C207.635 29.2227 207.746 30.2057 207.746 31.2734C207.746 36.4036 205.188 40.8633 200.07 44.6523C197.154 46.8138 193.775 48.5326 189.934 49.8086C189.191 50.043 188.82 50.1602 188.82 50.1602ZM193.781 31.1172C193.794 32.3672 193.924 33.4219 194.172 34.2812C194.419 35.1406 194.836 35.8828 195.422 36.5078C196.008 37.1198 196.796 37.582 197.785 37.8945C198.775 38.194 199.999 38.3503 201.457 38.3633C202.056 37.7643 202.557 36.7878 202.961 35.4336C203.378 34.0794 203.586 32.4388 203.586 30.5117C203.586 28.181 203.13 26.3711 202.219 25.082C201.32 23.7799 200.07 23.1289 198.469 23.1289C198.065 23.1289 197.668 23.1875 197.277 23.3047C196.9 23.4219 196.49 23.6628 196.047 24.0273C195.604 24.3789 195.22 24.8346 194.895 25.3945C194.582 25.9544 194.315 26.7292 194.094 27.7188C193.885 28.7083 193.781 29.8411 193.781 31.1172Z" fill="white"/>
<path d="M381.18 -7.52001C391.86 -7.52001 400.8 -6.50001 408 -4.46C415.32 -2.42 420.78 0.939997 424.38 5.61999C428.1 10.3 429.96 16.54 429.96 24.34C429.96 29.38 429 33.88 427.08 37.84C425.28 41.68 422.52 44.92 418.8 47.56C415.2 50.08 410.76 51.82 405.48 52.78V53.68C410.88 54.52 415.74 56.08 420.06 58.36C424.5 60.64 427.98 63.88 430.5 68.08C433.02 72.28 434.28 77.74 434.28 84.46C434.28 92.26 432.48 98.92 428.88 104.44C425.28 109.84 420.12 113.98 413.4 116.86C406.8 119.62 398.88 121 389.64 121H344.46V-7.52001H381.18ZM384.42 47.2C395.46 47.2 403.02 45.46 407.1 41.98C411.18 38.38 413.22 33.1 413.22 26.14C413.22 19.06 410.7 14.02 405.66 11.02C400.74 7.9 392.82 6.34 381.9 6.34H360.66V47.2H384.42ZM360.66 60.7V107.32H386.58C397.98 107.32 405.9 105.1 410.34 100.66C414.78 96.22 417 90.4 417 83.2C417 78.64 415.98 74.68 413.94 71.32C412.02 67.96 408.72 65.38 404.04 63.58C399.48 61.66 393.24 60.7 385.32 60.7H360.66Z" fill="white"/>
<path d="M6.6 114V85.44H29.2V114H23.16V90.48H12.64V114H6.6ZM48.0847 91.76C50.538 91.76 52.5247 92.72 54.0447 94.64C55.5647 96.5333 56.3247 99.3333 56.3247 103.04C56.3247 105.52 55.9647 107.613 55.2447 109.32C54.5247 111 53.538 112.267 52.2847 113.12C51.0314 113.973 49.578 114.4 47.9247 114.4C46.8847 114.4 45.978 114.267 45.2047 114C44.458 113.733 43.818 113.387 43.2847 112.96C42.7514 112.533 42.2847 112.08 41.8847 111.6H41.5647C41.6714 112.107 41.7514 112.64 41.8047 113.2C41.858 113.733 41.8847 114.267 41.8847 114.8V123.6H35.9247V92.16H40.7647L41.6047 95H41.8847C42.2847 94.4133 42.7647 93.88 43.3247 93.4C43.8847 92.8933 44.5514 92.4933 45.3247 92.2C46.1247 91.9067 47.0447 91.76 48.0847 91.76ZM46.1647 96.52C45.1247 96.52 44.298 96.7333 43.6847 97.16C43.0714 97.5867 42.618 98.24 42.3247 99.12C42.058 99.9733 41.9114 101.053 41.8847 102.36V103C41.8847 104.413 42.018 105.613 42.2847 106.6C42.5514 107.56 43.0047 108.293 43.6447 108.8C44.2847 109.307 45.1514 109.56 46.2447 109.56C47.1514 109.56 47.898 109.307 48.4847 108.8C49.0714 108.293 49.5114 107.547 49.8047 106.56C50.098 105.573 50.2447 104.373 50.2447 102.96C50.2447 100.827 49.9114 99.2267 49.2447 98.16C48.6047 97.0667 47.578 96.52 46.1647 96.52ZM66.9972 100.8C66.9972 101.253 66.9705 101.813 66.9172 102.48C66.8905 103.147 66.8505 103.827 66.7972 104.52C66.7705 105.213 66.7305 105.827 66.6772 106.36C66.6239 106.893 66.5839 107.267 66.5572 107.48L76.6372 92.16H83.7972V114H78.0372V105.28C78.0372 104.56 78.0639 103.773 78.1172 102.92C78.1705 102.04 78.2239 101.227 78.2772 100.48C78.3572 99.7067 78.4105 99.12 78.4372 98.72L68.3972 114H61.2372V92.16H66.9972V100.8ZM109.666 92.16V109.64H112.866V121.84H107.506V114H92.8263V121.84H87.4663V109.64H89.3063C90.2663 108.173 91.0796 106.507 91.7463 104.64C92.4129 102.747 92.9463 100.733 93.3463 98.6C93.7463 96.4667 94.0396 94.32 94.2263 92.16H109.666ZM99.2263 96.64C99.0129 98.24 98.7463 99.8 98.4263 101.32C98.1063 102.813 97.7063 104.253 97.2263 105.64C96.7729 107.027 96.2129 108.36 95.5463 109.64H103.706V96.64H99.2263ZM122.549 92.16V100.56H130.869V92.16H136.829V114H130.869V105H122.549V114H116.589V92.16H122.549ZM152.073 91.76C154.1 91.76 155.833 92.1467 157.273 92.92C158.74 93.6933 159.873 94.8133 160.673 96.28C161.473 97.7467 161.873 99.5467 161.873 101.68V104.56H147.793C147.846 106.24 148.34 107.56 149.273 108.52C150.233 109.48 151.553 109.96 153.233 109.96C154.646 109.96 155.926 109.827 157.073 109.56C158.22 109.267 159.406 108.827 160.633 108.24V112.84C159.566 113.373 158.433 113.76 157.233 114C156.06 114.267 154.633 114.4 152.953 114.4C150.766 114.4 148.833 114 147.153 113.2C145.473 112.373 144.153 111.133 143.193 109.48C142.233 107.827 141.753 105.747 141.753 103.24C141.753 100.68 142.18 98.56 143.033 96.88C143.913 95.1733 145.126 93.8933 146.673 93.04C148.22 92.1867 150.02 91.76 152.073 91.76ZM152.113 96C150.966 96 150.006 96.3733 149.233 97.12C148.486 97.8667 148.046 99.0267 147.913 100.6H156.273C156.273 99.72 156.113 98.9333 155.793 98.24C155.5 97.5467 155.046 97 154.433 96.6C153.82 96.2 153.046 96 152.113 96ZM175.586 114.4C173.426 114.4 171.586 114.013 170.066 113.24C168.546 112.44 167.386 111.213 166.586 109.56C165.786 107.907 165.386 105.787 165.386 103.2C165.386 100.533 165.839 98.36 166.746 96.68C167.653 95 168.906 93.76 170.506 92.96C172.133 92.16 173.999 91.76 176.106 91.76C177.599 91.76 178.893 91.9067 179.986 92.2C181.106 92.4933 182.079 92.84 182.906 93.24L181.146 97.84C180.213 97.4667 179.333 97.16 178.506 96.92C177.706 96.68 176.906 96.56 176.106 96.56C175.066 96.56 174.199 96.8133 173.506 97.32C172.813 97.8 172.293 98.5333 171.946 99.52C171.626 100.48 171.466 101.693 171.466 103.16C171.466 104.6 171.639 105.8 171.986 106.76C172.359 107.693 172.893 108.4 173.586 108.88C174.279 109.333 175.119 109.56 176.106 109.56C177.359 109.56 178.466 109.4 179.426 109.08C180.386 108.733 181.319 108.267 182.226 107.68V112.76C181.319 113.347 180.359 113.76 179.346 114C178.359 114.267 177.106 114.4 175.586 114.4ZM205.333 96.64H198.173V114H192.213V96.64H185.053V92.16H205.333V96.64ZM221.522 91.76C223.976 91.76 225.962 92.72 227.482 94.64C229.002 96.5333 229.762 99.3333 229.762 103.04C229.762 105.52 229.402 107.613 228.682 109.32C227.962 111 226.976 112.267 225.722 113.12C224.469 113.973 223.016 114.4 221.362 114.4C220.322 114.4 219.416 114.267 218.642 114C217.896 113.733 217.256 113.387 216.722 112.96C216.189 112.533 215.722 112.08 215.322 111.6H215.002C215.109 112.107 215.189 112.64 215.242 113.2C215.296 113.733 215.322 114.267 215.322 114.8V123.6H209.362V92.16H214.202L215.042 95H215.322C215.722 94.4133 216.202 93.88 216.762 93.4C217.322 92.8933 217.989 92.4933 218.762 92.2C219.562 91.9067 220.482 91.76 221.522 91.76ZM219.602 96.52C218.562 96.52 217.736 96.7333 217.122 97.16C216.509 97.5867 216.056 98.24 215.762 99.12C215.496 99.9733 215.349 101.053 215.322 102.36V103C215.322 104.413 215.456 105.613 215.722 106.6C215.989 107.56 216.442 108.293 217.082 108.8C217.722 109.307 218.589 109.56 219.682 109.56C220.589 109.56 221.336 109.307 221.922 108.8C222.509 108.293 222.949 107.547 223.242 106.56C223.536 105.573 223.682 104.373 223.682 102.96C223.682 100.827 223.349 99.2267 222.682 98.16C222.042 97.0667 221.016 96.52 219.602 96.52ZM254.515 103.04C254.515 104.853 254.261 106.467 253.755 107.88C253.275 109.293 252.568 110.493 251.635 111.48C250.728 112.44 249.621 113.173 248.315 113.68C247.008 114.16 245.528 114.4 243.875 114.4C242.355 114.4 240.941 114.16 239.635 113.68C238.355 113.173 237.248 112.44 236.315 111.48C235.381 110.493 234.648 109.293 234.115 107.88C233.608 106.467 233.355 104.853 233.355 103.04C233.355 100.613 233.781 98.5733 234.635 96.92C235.488 95.24 236.715 93.96 238.315 93.08C239.915 92.2 241.808 91.76 243.995 91.76C246.048 91.76 247.861 92.2 249.435 93.08C251.008 93.96 252.248 95.24 253.155 96.92C254.061 98.5733 254.515 100.613 254.515 103.04ZM239.435 103.04C239.435 104.48 239.581 105.693 239.875 106.68C240.195 107.64 240.688 108.373 241.355 108.88C242.021 109.36 242.888 109.6 243.955 109.6C245.021 109.6 245.875 109.36 246.515 108.88C247.181 108.373 247.661 107.64 247.955 106.68C248.275 105.693 248.435 104.48 248.435 103.04C248.435 101.6 248.275 100.4 247.955 99.44C247.661 98.48 247.181 97.76 246.515 97.28C245.848 96.8 244.981 96.56 243.915 96.56C242.341 96.56 241.195 97.1067 240.475 98.2C239.781 99.2667 239.435 100.88 239.435 103.04ZM278.8 97.88C278.8 99.0533 278.427 100.053 277.68 100.88C276.96 101.707 275.88 102.24 274.44 102.48V102.64C275.96 102.827 277.174 103.347 278.08 104.2C279.014 105.053 279.48 106.147 279.48 107.48C279.48 108.413 279.294 109.28 278.92 110.08C278.574 110.88 278.014 111.573 277.24 112.16C276.467 112.747 275.467 113.2 274.24 113.52C273.04 113.84 271.574 114 269.84 114H259.44V92.16H269.84C271.547 92.16 273.067 92.3467 274.4 92.72C275.76 93.0667 276.827 93.6533 277.6 94.48C278.4 95.3067 278.8 96.44 278.8 97.88ZM273.32 107.16C273.32 106.307 272.987 105.693 272.32 105.32C271.654 104.92 270.654 104.72 269.32 104.72H265.4V109.88H269.44C270.56 109.88 271.48 109.68 272.2 109.28C272.947 108.853 273.32 108.147 273.32 107.16ZM272.76 98.36C272.76 97.6667 272.494 97.16 271.96 96.84C271.427 96.52 270.64 96.36 269.6 96.36H265.4V100.68H268.92C270.174 100.68 271.12 100.507 271.76 100.16C272.427 99.7867 272.76 99.1867 272.76 98.36ZM294.757 100.6C296.997 100.6 298.85 100.84 300.317 101.32C301.783 101.773 302.863 102.48 303.557 103.44C304.277 104.4 304.637 105.6 304.637 107.04C304.637 108.453 304.303 109.68 303.637 110.72C302.997 111.76 301.97 112.573 300.557 113.16C299.143 113.72 297.29 114 294.997 114H284.597V92.16H290.557V100.6H294.757ZM298.677 107.12C298.677 106.267 298.33 105.653 297.637 105.28C296.97 104.907 295.97 104.72 294.637 104.72H290.557V109.88H294.717C295.89 109.88 296.837 109.667 297.557 109.24C298.303 108.813 298.677 108.107 298.677 107.12ZM318.167 91.76C320.194 91.76 321.927 92.1467 323.367 92.92C324.834 93.6933 325.967 94.8133 326.767 96.28C327.567 97.7467 327.967 99.5467 327.967 101.68V104.56H313.887C313.94 106.24 314.434 107.56 315.367 108.52C316.327 109.48 317.647 109.96 319.327 109.96C320.74 109.96 322.02 109.827 323.167 109.56C324.314 109.267 325.5 108.827 326.727 108.24V112.84C325.66 113.373 324.527 113.76 323.327 114C322.154 114.267 320.727 114.4 319.047 114.4C316.86 114.4 314.927 114 313.247 113.2C311.567 112.373 310.247 111.133 309.287 109.48C308.327 107.827 307.847 105.747 307.847 103.24C307.847 100.68 308.274 98.56 309.127 96.88C310.007 95.1733 311.22 93.8933 312.767 93.04C314.314 92.1867 316.114 91.76 318.167 91.76ZM318.207 96C317.06 96 316.1 96.3733 315.327 97.12C314.58 97.8667 314.14 99.0267 314.007 100.6H322.367C322.367 99.72 322.207 98.9333 321.887 98.24C321.594 97.5467 321.14 97 320.527 96.6C319.914 96.2 319.14 96 318.207 96Z" fill="white"/>
</svg>
